<svg xmlns:dc="http://purl.org/dc/elements/1.1/" xmlns:cc="http://creativecommons.org/ns#" xmlns:rdf="http://www.w3.org/1999/02/22-rdf-syntax-ns#" xmlns:svg="http://www.w3.org/2000/svg" xmlns="http://www.w3.org/2000/svg" xmlns:sodipodi="http://sodipodi.sourceforge.net/DTD/sodipodi-0.dtd" xmlns:inkscape="http://www.inkscape.org/namespaces/inkscape" version="1.1" id="Layer_1" x="0px" y="0px" viewBox="0 0 170 170" xml:space="preserve" sodipodi:docname="cookbook.svg" inkscape:version="0.92.3 (2405546, 2018-03-11)" stroke="white" fill="white">
  <metadata id="metadata13">
    <rdf:RDF>
      <cc:Work rdf:about="">
        <dc:format>image/svg+xml</dc:format>
        <dc:type rdf:resource="http://purl.org/dc/dcmitype/StillImage"/>
        <dc:title></dc:title>
      </cc:Work>
    </rdf:RDF>
  </metadata>
  <defs id="defs11"/>
  <sodipodi:namedview pagecolor="#ffffff" bordercolor="#666666" borderopacity="1" objecttolerance="10" gridtolerance="10" guidetolerance="10" inkscape:pageopacity="0" inkscape:pageshadow="2" inkscape:window-width="1920" inkscape:window-height="1012" id="namedview9" showgrid="false" fit-margin-top="20.6" fit-margin-bottom="20.5" fit-margin-left="9" fit-margin-right="9" inkscape:zoom="3.5757576" inkscape:cx="115.3086" inkscape:cy="88.721128" inkscape:window-x="0" inkscape:window-y="32" inkscape:window-maximized="1" inkscape:current-layer="Layer_1"/>
  <rect width="170" height="170" ry="14.166" rx="14.166" style="fill:#00304E;stroke-width:0;" />
  <g id="g6" transform="translate(8,18.999991)"> 
    <path d="m 79.5,109.9 c 10.1,0 19.8,-1 28.6,-2.8 V 93.7 c -8.8,2 -18.5,3.1 -28.6,3.1 -13,0 -24.6,-1.8 -34.3,-4.6 v 0 c -4.6,-1.4 -8.9,-3 -12.6,-4.8 v 0 C 20.9,81.7 14.1,74.3 14.1,67.3 14.1,61.4 18.7,55.3 27,50.2 V 35.3 C 10.9,43 1,54.4 1,67.3 1,81.6 13.3,94 32.6,101.7 V 118 H 16.2 v 12.5 H 58.1 V 118 H 45.2 v -12.2 c 10.3,2.6 21.9,4.1 34.3,4.1 z" id="path2" inkscape:connector-curvature="0"/>
    <path d="M 153.1,108.2 V 77.4 h -12.5 v 0.1 l -0.1,-0.1 v -0.1 c -3,3.4 -7.4,6.7 -13.1,9.6 -0.4,0.2 -0.8,0.4 -1.2,0.5 V 47.1 c 6.2,3 11.1,6.5 14.3,10.2 l 0.2,-0.1 h 12.4 V 25.9 h -12.5 v 14.2 c -4.2,-2.8 -9,-5.3 -14.3,-7.4 v 0 c -0.2,-0.1 -0.3,-0.1 -0.5,-0.2 -0.7,-0.3 -1.4,-0.5 -2.1,-0.8 -0.3,-0.1 -0.6,-0.2 -0.9,-0.3 -0.7,-0.3 -1.4,-0.5 -2.2,-0.7 -0.3,-0.1 -0.6,-0.2 -0.9,-0.3 -0.7,-0.2 -1.5,-0.5 -2.3,-0.7 -0.3,-0.1 -0.6,-0.2 -0.9,-0.3 -0.8,-0.2 -1.5,-0.4 -2.3,-0.6 -0.2,0 -0.3,-0.1 -0.5,-0.1 v 0 c -3.4,-0.9 -6.9,-1.6 -10.5,-2.2 L 108,13.9 h 5.7 V 23 c 4.4,1.1 8.6,2.4 12.6,3.9 v -13 h 16.4 V 1.3 H 99.3 l -19.9,52.3 -6,-15.7 c 2,-0.1 4,-0.1 6,-0.1 0.1,0 0.3,0 0.4,0 l 4.9,-13 c -1.8,-0.1 -3.5,-0.1 -5.3,-0.1 -12.4,0 -24,1.5 -34.3,4.2 v -15 h 5.7 l 2.9,7.6 c 4.1,-0.8 8.4,-1.4 12.8,-1.8 L 59.5,1.3 H 16.2 v 12.6 h 16.4 v 67.6 c 3.7,1.8 7.9,3.5 12.6,4.9 V 42.3 C 50,40.9 55.1,39.8 60.5,39 l 19,49.9 19,-49.9 c 5.5,0.8 10.6,1.9 15.3,3.3 v 49.9 c 0,0 0,0 0,0 v 13.6 c 0,0 0,0 0,0 V 118 h -12.9 v 12.5 h 41.9 V 118 h -16.4 v -16.3 c 5.3,-2.1 10.2,-4.6 14.3,-7.4 v 13.8 h 12.4 z" id="path4" inkscape:connector-curvature="0"/>
  </g>
</svg>
