<?xml version="1.0" standalone="no"?>
<!DOCTYPE svg PUBLIC "-//W3C//DTD SVG 20010904//EN"
 "http://www.w3.org/TR/2001/REC-SVG-20010904/DTD/svg10.dtd">
<svg version="1.0" xmlns="http://www.w3.org/2000/svg"
 width="700.000000pt" height="700.000000pt" viewBox="0 0 700.000000 700.000000"
 preserveAspectRatio="xMidYMid meet">
<metadata>
Created by potrace 1.11, written by Peter Selinger 2001-2013
</metadata>
<g transform="translate(0.000000,700.000000) scale(0.100000,-0.100000)"
fill="#000000" stroke="none">
<path d="M465 6988 c-163 -31 -332 -164 -404 -320 -22 -45 -44 -110 -50 -142
-15 -84 -15 -5968 0 -6052 31 -172 161 -339 321 -413 45 -22 110 -44 142 -50
84 -15 5968 -15 6052 0 172 31 339 161 413 321 22 45 44 110 50 142 15 84 15
5968 0 6052 -31 172 -161 339 -321 413 -45 22 -110 44 -142 50 -77 14 -5987
13 -6061 -1z m5466 -944 c49 -24 93 -69 118 -124 15 -32 16 -256 16 -2415 0
-2313 -1 -2381 -19 -2428 -21 -52 -69 -100 -125 -126 -33 -15 -240 -16 -2416
-16 -2313 0 -2381 1 -2428 19 -52 21 -100 69 -126 125 -15 33 -16 240 -16
2416 0 2283 1 2382 18 2425 31 75 89 124 169 139 24 5 1105 8 2403 7 l2360 -1
46 -21z"/>
<path d="M1400 3500 l0 -2100 2100 0 2100 0 0 2100 0 2100 -2100 0 -2100 0 0
-2100z m2194 798 c1286 -642 1256 -625 1289 -723 21 -61 21 -89 1 -150 -34
-97 -1 -78 -1282 -719 -822 -411 -1203 -596 -1234 -601 -77 -12 -147 15 -202
76 -26 28 -50 63 -54 78 -4 14 -7 575 -7 1246 0 1183 1 1221 19 1259 45 89
129 139 226 132 49 -4 183 -68 1244 -598z"/>
<path d="M2570 3500 c0 -429 2 -780 5 -780 10 0 1555 775 1555 780 0 5 -1545
780 -1555 780 -3 0 -5 -351 -5 -780z"/>
</g>
</svg>
