<?xml version="1.0" standalone="no"?>
<!DOCTYPE svg PUBLIC "-//W3C//DTD SVG 20010904//EN"
 "http://www.w3.org/TR/2001/REC-SVG-20010904/DTD/svg10.dtd">
<svg version="1.0" xmlns="http://www.w3.org/2000/svg"
 width="700.000000pt" height="700.000000pt" viewBox="0 0 700.000000 700.000000"
 preserveAspectRatio="xMidYMid meet">
<metadata>
Created by potrace 1.11, written by Peter Selinger 2001-2013
</metadata>
<g transform="translate(0.000000,700.000000) scale(0.100000,-0.100000)"
fill="#000000" stroke="none">
<path d="M465 6988 c-163 -31 -332 -164 -404 -320 -22 -45 -44 -110 -50 -142
-15 -84 -15 -5968 0 -6052 31 -172 161 -339 321 -413 45 -22 110 -44 142 -50
84 -15 5968 -15 6052 0 172 31 339 161 413 321 22 45 44 110 50 142 15 84 15
5968 0 6052 -31 172 -161 339 -321 413 -45 22 -110 44 -142 50 -77 14 -5987
13 -6061 -1z m1596 -2100 c51 -17 95 -57 116 -102 17 -38 18 -105 18 -1286 0
-1181 -1 -1248 -18 -1286 -30 -65 -107 -114 -181 -114 -17 0 -50 9 -74 20 -55
25 -1007 596 -1049 629 -17 14 -40 43 -50 65 -17 38 -18 84 -18 686 0 608 1
648 19 685 10 22 32 52 50 66 38 32 989 602 1048 629 50 23 91 25 139 8z
m4000 0 c46 -15 90 -53 114 -97 20 -35 20 -57 23 -1276 3 -1351 5 -1281 -52
-1347 -36 -41 -77 -58 -410 -168 -269 -89 -316 -101 -355 -96 -32 4 -163 63
-422 192 l-375 187 -276 -92 c-151 -50 -289 -91 -305 -91 -70 0 -142 44 -178
109 -20 35 -20 58 -23 1271 -2 915 0 1245 9 1275 11 41 48 92 78 109 58 35 73
35 1112 36 753 0 1035 -3 1060 -12z m-2807 -502 c112 -47 165 -236 188 -664 8
-167 8 -277 0 -445 -23 -427 -76 -616 -188 -663 -53 -22 -83 -17 -120 20 -47
47 -46 86 3 135 21 20 42 55 50 81 79 260 79 1040 0 1300 -8 26 -29 61 -50 82
-49 48 -50 87 -3 134 37 37 67 42 120 20z m-380 -209 c119 -73 169 -273 169
-677 0 -258 -11 -368 -52 -501 -54 -174 -186 -252 -266 -157 -37 43 -30 91 19
134 74 64 99 198 99 524 0 307 -33 496 -90 514 -22 7 -53 56 -53 85 0 53 49
100 105 101 17 0 47 -11 69 -23z m-370 -216 c51 -36 90 -106 117 -207 31 -115
31 -393 0 -508 -40 -150 -106 -229 -203 -242 -45 -6 -49 -5 -83 29 -55 55 -41
123 35 162 38 20 58 76 72 201 8 78 8 130 0 208 -14 125 -34 181 -72 201 -76
39 -90 107 -35 162 34 34 38 35 83 29 28 -4 63 -18 86 -35z"/>
<path d="M1493 4163 l-293 -176 0 -487 0 -487 294 -177 c162 -97 297 -176 300
-176 3 0 6 378 6 840 0 462 -3 840 -7 840 -5 -1 -140 -80 -300 -177z"/>
<path d="M4200 3539 c0 -765 3 -960 13 -956 6 2 91 30 188 62 154 50 182 57
224 51 32 -5 169 -69 419 -193 l371 -186 193 64 192 63 0 1028 0 1028 -800 0
-800 0 0 -961z"/>
</g>
</svg>
