<?xml version="1.0" standalone="no"?>
<!DOCTYPE svg PUBLIC "-//W3C//DTD SVG 20010904//EN"
 "http://www.w3.org/TR/2001/REC-SVG-20010904/DTD/svg10.dtd">
<svg version="1.0" xmlns="http://www.w3.org/2000/svg"
 width="700.000000pt" height="700.000000pt" viewBox="0 0 700.000000 700.000000"
 preserveAspectRatio="xMidYMid meet">
<metadata>
Created by potrace 1.11, written by Peter Selinger 2001-2013
</metadata>
<g transform="translate(0.000000,700.000000) scale(0.100000,-0.100000)"
fill="#000000" stroke="none">
<path d="M460 6984 c-219 -47 -399 -228 -445 -449 -22 -106 -22 -5964 0 -6070
47 -223 227 -403 450 -450 106 -22 5964 -22 6070 0 223 47 403 227 450 450 22
106 22 5964 0 6070 -47 223 -227 403 -450 450 -103 22 -5975 21 -6075 -1z
m5475 -941 c47 -25 85 -64 111 -113 18 -34 19 -112 19 -2430 0 -2318 -1 -2396
-19 -2430 -26 -49 -64 -88 -111 -113 l-40 -22 -2395 0 c-2318 0 -2396 1 -2430
19 -49 26 -88 64 -113 111 l-22 40 0 2395 c0 2318 1 2396 19 2430 38 71 95
116 166 131 19 4 1102 6 2405 5 l2370 -1 40 -22z"/>
<path d="M1400 3500 l0 -2100 2100 0 2100 0 0 2100 0 2100 -2100 0 -2100 0 0
-2100z m2194 798 c1286 -642 1256 -625 1289 -723 21 -61 21 -89 1 -150 -34
-97 -1 -78 -1282 -719 -822 -411 -1203 -596 -1234 -601 -77 -12 -147 15 -202
76 -26 28 -50 63 -54 78 -4 14 -7 575 -7 1246 0 1183 1 1221 19 1259 45 89
129 139 226 132 49 -4 183 -68 1244 -598z"/>
<path d="M2570 3500 c0 -429 2 -780 5 -780 10 0 1555 775 1555 780 0 5 -1545
780 -1555 780 -3 0 -5 -351 -5 -780z"/>
</g>
</svg>
