<?xml version="1.0" standalone="no"?>
<!DOCTYPE svg PUBLIC "-//W3C//DTD SVG 20010904//EN"
 "http://www.w3.org/TR/2001/REC-SVG-20010904/DTD/svg10.dtd">
<svg version="1.0" xmlns="http://www.w3.org/2000/svg"
 width="700.000000pt" height="700.000000pt" viewBox="0 0 700.000000 700.000000"
 preserveAspectRatio="xMidYMid meet">
<metadata>
Created by potrace 1.11, written by Peter Selinger 2001-2013
</metadata>
<g transform="translate(0.000000,700.000000) scale(0.100000,-0.100000)"
fill="#000000" stroke="none">
<path d="M465 6988 c-163 -31 -332 -164 -404 -320 -22 -45 -44 -110 -50 -142
-15 -84 -15 -5968 0 -6052 31 -172 161 -339 321 -413 45 -22 110 -44 142 -50
84 -15 5968 -15 6052 0 172 31 339 161 413 321 22 45 44 110 50 142 15 84 15
5968 0 6052 -31 172 -161 339 -321 413 -45 22 -110 44 -142 50 -77 14 -5987
13 -6061 -1z m1101 -2422 c38 -38 44 -76 18 -116 -9 -14 -224 -233 -478 -487
l-461 -463 461 -462 c254 -255 469 -474 478 -488 26 -40 20 -78 -18 -116 -43
-43 -79 -44 -132 -5 -21 16 -260 251 -531 522 -327 329 -494 503 -498 522 -4
15 -4 39 0 55 4 18 171 192 498 521 271 271 510 506 531 522 53 39 89 38 132
-5z m1501 1 c53 -53 76 -1 -475 -1103 -280 -560 -519 -1028 -532 -1039 -32
-29 -93 -26 -125 5 -56 56 -81 -2 473 1106 280 560 518 1026 528 1035 41 35
94 33 131 -4z m500 1 c13 -12 317 -413 676 -892 l652 -869 5 866 5 867 28 27
c38 38 96 38 134 0 l28 -27 0 -1040 0 -1040 -27 -27 c-37 -37 -96 -38 -133 -3
-14 13 -319 415 -678 894 l-652 869 -5 -866 -5 -867 -27 -27 c-39 -38 -97 -38
-136 0 l-27 27 0 1039 c0 1025 0 1039 20 1061 41 45 99 48 142 8z m1999 3 c21
-16 260 -251 531 -522 327 -329 494 -503 498 -521 4 -16 4 -40 0 -55 -4 -19
-171 -193 -498 -522 -271 -271 -510 -506 -531 -522 -53 -39 -89 -38 -132 5
-38 38 -44 76 -18 116 9 14 224 233 478 488 l461 462 -461 463 c-254 254 -469
473 -478 487 -26 40 -20 78 18 116 43 43 79 44 132 5z"/>
</g>
</svg>
