<?xml version="1.0" standalone="no"?>
<!DOCTYPE svg PUBLIC "-//W3C//DTD SVG 20010904//EN"
 "http://www.w3.org/TR/2001/REC-SVG-20010904/DTD/svg10.dtd">
<svg version="1.0" xmlns="http://www.w3.org/2000/svg"
 width="700.000000pt" height="700.000000pt" viewBox="0 0 700.000000 700.000000"
 preserveAspectRatio="xMidYMid meet">
<metadata>
Created by potrace 1.11, written by Peter Selinger 2001-2013
</metadata>
<g transform="translate(0.000000,700.000000) scale(0.100000,-0.100000)"
fill="#000000" stroke="none">
<path d="M483 6989 c-211 -35 -388 -192 -456 -404 l-22 -70 0 -3015 c0 -2898
1 -3017 18 -3075 30 -98 77 -175 152 -250 75 -75 152 -122 250 -152 58 -17
177 -18 3075 -18 2898 0 3017 1 3075 18 98 30 175 77 250 152 75 75 122 152
152 250 17 58 18 177 18 3075 0 2898 -1 3017 -18 3075 -58 189 -204 337 -397
402 -53 17 -167 18 -3050 19 -1651 1 -3018 -2 -3047 -7z m1578 -2101 c48 -16
86 -46 112 -88 l22 -35 0 -1265 0 -1265 -23 -37 c-55 -87 -160 -120 -254 -79
-24 11 -270 156 -548 323 -449 271 -508 309 -535 349 l-30 44 0 665 0 665 22
36 c13 19 42 49 65 66 51 35 1002 604 1038 620 33 15 89 16 131 1z m4000 0
c48 -16 86 -46 112 -88 l22 -35 3 -1250 c2 -961 0 -1257 -10 -1280 -18 -45
-49 -83 -83 -104 -17 -10 -177 -67 -354 -126 -285 -95 -329 -107 -371 -102
-35 4 -148 56 -421 193 l-374 187 -275 -92 c-152 -50 -289 -91 -306 -91 -69 0
-139 40 -177 100 l-22 35 -3 1240 c-2 904 0 1251 8 1279 20 68 66 115 135 137
11 4 484 7 1051 8 765 1 1040 -2 1065 -11z m-2803 -502 c31 -16 74 -61 91 -93
118 -230 137 -1156 31 -1500 -25 -80 -41 -112 -77 -144 -55 -51 -100 -61 -152
-35 -64 33 -67 130 -5 171 26 17 56 106 73 220 24 155 35 487 23 708 -17 312
-48 471 -96 502 -13 8 -28 27 -34 41 -43 92 54 178 146 130z m-392 -202 c76
-36 128 -144 161 -330 24 -141 24 -567 0 -708 -40 -228 -115 -346 -222 -346
-55 0 -105 49 -105 101 0 29 31 78 53 85 27 8 55 82 74 193 22 134 22 508 0
642 -20 114 -47 185 -76 194 -12 3 -28 19 -36 35 -50 98 47 183 151 134z
m-389 -203 c107 -49 172 -231 172 -481 0 -250 -65 -432 -172 -481 -50 -22 -88
-24 -126 -5 -70 37 -64 146 10 176 44 19 67 76 81 204 8 80 8 132 0 212 -14
128 -37 185 -81 204 -53 22 -76 88 -47 139 29 52 92 64 163 32z"/>
<path d="M1493 4162 l-293 -177 0 -485 0 -485 291 -175 c161 -96 296 -176 300
-178 5 -2 9 370 9 837 0 463 -3 841 -7 840 -5 0 -140 -80 -300 -177z"/>
<path d="M4200 3540 c0 -528 1 -960 3 -960 1 0 83 27 182 61 153 51 188 60
231 56 40 -4 125 -42 425 -192 l374 -188 193 64 192 63 0 1028 0 1028 -800 0
-800 0 0 -960z"/>
</g>
</svg>
