<?xml version="1.0" standalone="no"?>
<!DOCTYPE svg PUBLIC "-//W3C//DTD SVG 20010904//EN"
 "http://www.w3.org/TR/2001/REC-SVG-20010904/DTD/svg10.dtd">
<svg version="1.0" xmlns="http://www.w3.org/2000/svg"
 width="700.000000pt" height="700.000000pt" viewBox="0 0 700.000000 700.000000"
 preserveAspectRatio="xMidYMid meet">
<metadata>
Created by potrace 1.11, written by Peter Selinger 2001-2013
</metadata>
<g transform="translate(0.000000,700.000000) scale(0.100000,-0.100000)"
fill="#000000" stroke="none">
<path d="M465 6988 c-163 -31 -332 -164 -404 -320 -22 -45 -44 -110 -50 -142
-15 -84 -15 -5968 0 -6052 31 -172 161 -339 321 -413 45 -22 110 -44 142 -50
84 -15 5968 -15 6052 0 172 31 339 161 413 321 22 45 44 110 50 142 15 84 15
5968 0 6052 -31 172 -161 339 -321 413 -45 22 -110 44 -142 50 -77 14 -5987
13 -6061 -1z m2479 -1199 c82 -214 146 -393 142 -396 -3 -3 -74 -14 -158 -24
-84 -10 -207 -27 -273 -38 -66 -11 -123 -17 -127 -13 -6 6 -33 74 -100 250
l-19 52 -100 0 -99 0 0 -281 0 -281 28 5 c537 117 889 157 1380 157 l224 0 -6
-22 c-3 -13 -50 -142 -105 -288 l-99 -265 -125 -5 -124 -5 105 -277 c58 -153
108 -278 111 -278 3 0 150 379 326 843 175 463 355 935 398 1050 l80 207 913
0 914 0 -2 -277 -3 -278 -337 -3 -338 -2 0 -270 0 -269 -172 58 c-95 32 -221
71 -280 87 l-108 28 0 184 0 183 -101 -3 -102 -3 -82 -215 c-45 -119 -85 -225
-89 -237 -6 -19 0 -22 86 -38 493 -93 959 -259 1295 -460 51 -30 95 -55 98
-55 3 0 5 126 5 280 l0 280 275 0 275 0 0 -665 0 -665 -273 0 -273 0 -44 46
c-101 104 -300 249 -438 318 l-72 36 0 -795 0 -796 68 37 c177 98 317 200 450
328 48 47 72 65 72 53 0 -16 20 -17 255 -17 l255 0 0 -644 c0 -578 -2 -644
-16 -650 -9 -3 -132 -6 -275 -6 l-259 0 0 270 c0 149 -2 270 -3 270 -2 0 -42
-23 -88 -51 -80 -48 -277 -148 -402 -203 l-57 -25 0 -315 0 -316 340 0 340 0
0 -280 0 -280 -882 2 -883 3 -3 277 -2 278 265 0 265 0 -2 1541 -3 1542 -65
18 c-176 49 -509 113 -521 101 -4 -4 -183 -472 -399 -1040 -216 -568 -396
-1029 -400 -1025 -4 4 -184 471 -399 1038 -216 566 -394 1031 -395 1032 -9 9
-414 -76 -542 -113 l-54 -15 0 -914 0 -914 -127 43 c-142 48 -240 87 -355 139
l-78 36 0 1385 0 1386 -335 0 -335 0 0 280 0 280 908 0 908 0 148 -391z
m-1484 -1323 l0 -324 -97 -68 c-126 -88 -285 -247 -342 -341 -149 -249 -111
-475 123 -720 274 -289 772 -524 1381 -652 344 -73 659 -103 1055 -104 406 0
741 30 1069 98 68 14 130 25 137 25 12 0 14 -53 14 -295 0 -162 -1 -295 -2
-295 -2 0 -66 -11 -143 -25 -738 -132 -1534 -121 -2265 31 -90 19 -168 34
-172 34 -5 0 -8 -101 -8 -225 l0 -225 265 0 265 0 0 -280 0 -280 -880 0 -880
0 0 280 0 280 335 0 335 0 0 318 0 319 -67 28 c-203 84 -491 249 -642 367
-189 149 -375 363 -463 533 -330 645 -3 1335 844 1780 67 35 126 65 131 65 4
0 7 -146 7 -324z"/>
</g>
</svg>
